<svg xmlns="http://www.w3.org/2000/svg" viewBox="0 0 498 440">
	<g transform="translate(249 220) scale(1.22) translate(-249 -220)">
	<path fill="#296bf9" stroke="#0254ed" stroke-width="3"
		d="M367.854 36.575c2.43.142 4.862.284 7.965.797 2.748.848 4.849 1.24 6.894 1.824 4.15 1.184 8.269 2.473 12.4 3.719 0 0-.082.01-.097.374.689.452 1.393.54 2.097.626 0 0-.07.03-.215.328 2.149 1.89 4.376 3.586 6.755 5.034 1.7 1.034 3.602 1.733 5.413 2.582 0 0-.075.105-.217.438.334.438.811.542 1.288.646 0 0-.08.001-.205.339.318.446.763.554 1.207.663 0 0-.07.01-.288.29 1.603 1.742 3.426 3.203 5.25 4.663 0 0-.085.088-.339.316 3.856 6.822 7.966 13.416 12.076 20.01 1.713 7.307 3.425 14.615 4.786 22.665-.443 2.9-.61 5.058-.611 7.215-.014 74.114-.01 148.23-.013 222.344 0 4.252-.026 8.504-.04 12.756.009.397.018.795-.357 1.638a476 476 0 0 0-8.143 20.605c.246.436.47.516.695.595 0 0-.053-.037-.419-.118-.793 1.008-1.221 2.096-1.649 3.184 0 0-.032-.07-.346-.166-1.745 2.315-3.176 4.726-4.607 7.138 0 0-.014.03-.295-.25-5.8 4.596-11.32 9.471-16.84 14.346-8.455 5.94-18.057 8.596-29.04 9.853-13.904.015-26.92.026-40.4-.04-52.53-.1-104.595-.153-156.659-.135-15.296.005-30.592.208-45.889.32-15.513-2.3-29.22-8.285-40.152-19.833-2.404-2.54-4.61-5.266-7.18-8.527-3.348-5.875-6.424-11.128-9.5-16.381-1.065-4.517-2.13-9.035-3.128-14.43.033-5.2-.03-9.52-.03-13.841-.006-69.23-.002-138.458-.011-207.687 0-2.16-.114-4.32-.11-6.943-.674-17.853 2.593-34.163 12.947-48.595.323-.45.037-1.339.034-2.023 0 0 .09.082.404.188.433-.344.552-.793.671-1.243 0 0 0 .094.336.192 1.084-1.309 1.832-2.717 2.58-4.124 0 0 .004-.046.269.297.89-.179 1.514-.7 2.275-1.585-.096-.474-.327-.588-.558-.7 0 0 .067.04.427.242.775-.625 1.189-1.453 1.603-2.281 0 0 .084.084.434.24.435-.318.518-.794.602-1.27 0 0 .082.07.232.41 3.364-2.246 6.578-4.83 9.792-7.415 0 0 .001.07.32.243 8.622-2.847 16.925-5.868 25.229-8.888 1.21-.39 2.421-.781 4.223-.862 1.216.333 1.842.356 2.866.328 1.062-.099 1.726-.19 2.39-.19q116.439.036 232.878.08"
		opacity="1" />
	<g stroke="#084dcc" stroke-width="4.5">
		<path fill="#fdfdff"
			d="M148.785 286.524c2.494-2.012 4.698-3.68 6.218-5.829 12.841-18.15 25.744-36.263 38.134-54.718 2.208-3.29 3.343-8.251 2.893-12.203-1.668-14.644 7.336-28.053 21.398-30.55 14.097-2.504 27.111 7.065 30.382 21.518.824 3.638 3.458 7.562 6.414 9.89 8.229 6.484 17.05 12.215 25.662 18.209 7.86 5.468 16.276 4.02 21.72-3.728 9.333-13.289 18.499-26.7 28.047-39.83 3.016-4.146 3.891-7.977 3.023-13.091-2.121-12.472 5.56-25.048 16.681-28.558 13.239-4.177 26.16.703 32.116 12.137 6.128 11.76 3.164 25.513-7.52 33.433-2.537 1.883-5.694 3.74-8.708 4.003-7.012.617-10.948 4.465-14.619 10.005-8.553 12.909-17.84 25.329-26.426 38.214-1.698 2.554-2.53 6.433-2.147 9.497 2.02 16.102-6.534 29.278-21.265 31.915-14.888 2.666-27.258-6.596-30.849-22.504-.677-2.994-2.902-6.233-5.362-8.123-8.116-6.234-16.659-11.914-25.052-17.784-9.637-6.74-17.261-5.465-23.895 4.008-12.753 18.214-25.615 36.354-38.088 54.758-1.849 2.73-2.893 6.865-2.483 10.12 2.04 16.204-6.418 28.826-21.663 31.353-14.056 2.33-27.418-6.918-30.031-20.789-2.738-14.52 7.038-27.858 22.6-30.833.736-.142 1.476-.266 2.82-.52"
			opacity="1" />
		<path fill="#fbfcff"
			d="M297.812 138.887c-8.42 3.849-11.005 10.796-12.534 18.648-.991 5.09-2.65 10.05-5 16-8.827-18.753-22.89-29.8-44.417-30.243l.706-2.242c7.471-5.588 16.79-9.879 21.888-17.135 4.968-7.072 5.62-17.177 9.3-26.96 8.87 18.585 22.614 29.672 43.989 29.595l-.075 2.53a2705 2705 0 0 0-13.857 9.807"
			opacity="1" />
		<path fill="#f9fbfe"
			d="M124.943 181.092c3.967-6.827 7.465-13.355 11.398-20.695 5.543 10.887 14.481 18.482 28.551 19.79-12.045 6.623-19.26 15.638-20.611 29.756-6.677-11.598-15.262-19.44-29.164-19.42l-.1-1.838a1103 1103 0 0 1 9.926-7.593"
			opacity="1" />
	</g>
	</g>
</svg>