<svg xmlns="http://www.w3.org/2000/svg" viewBox="0 0 498 440">
	<g transform="translate(249 220) scale(1.22) translate(-249 -220)">
	<g stroke="rgba(7,71,191,0.503)" stroke-width="4.5">
		<path fill="rgba(113,124,196,0.474)"
			d="M148.785 286.524c2.494-2.012 4.698-3.68 6.218-5.829 12.841-18.15 25.744-36.263 38.134-54.718 2.208-3.29 3.343-8.251 2.893-12.203-1.668-14.644 7.336-28.053 21.398-30.55 14.097-2.504 27.111 7.065 30.382 21.518.824 3.638 3.458 7.562 6.414 9.89 8.229 6.484 17.05 12.215 25.662 18.209 7.86 5.468 16.276 4.02 21.72-3.728 9.333-13.289 18.499-26.7 28.047-39.83 3.016-4.146 3.891-7.977 3.023-13.091-2.121-12.472 5.56-25.048 16.681-28.558 13.239-4.177 26.16.703 32.116 12.137 6.128 11.76 3.164 25.513-7.52 33.433-2.537 1.883-5.694 3.74-8.708 4.003-7.012.617-10.948 4.465-14.619 10.005-8.553 12.909-17.84 25.329-26.426 38.214-1.698 2.554-2.53 6.433-2.147 9.497 2.02 16.102-6.534 29.278-21.265 31.915-14.888 2.666-27.258-6.596-30.849-22.504-.677-2.994-2.902-6.233-5.362-8.123-8.116-6.234-16.659-11.914-25.052-17.784-9.637-6.74-17.261-5.465-23.895 4.008-12.753 18.214-25.615 36.354-38.088 54.758-1.849 2.73-2.893 6.865-2.483 10.12 2.04 16.204-6.418 28.826-21.663 31.353-14.056 2.33-27.418-6.918-30.031-20.789-2.738-14.52 7.038-27.858 22.6-30.833.736-.142 1.476-.266 2.82-.52"
			opacity="1" />
		<path fill="rgba(113,124,196,0.474)"
			d="M297.812 138.887c-8.42 3.849-11.005 10.796-12.534 18.648-.991 5.09-2.65 10.05-5 16-8.827-18.753-22.89-29.8-44.417-30.243l.706-2.242c7.471-5.588 16.79-9.879 21.888-17.135 4.968-7.072 5.62-17.177 9.3-26.96 8.87 18.585 22.614 29.672 43.989 29.595l-.075 2.53a2705 2705 0 0 0-13.857 9.807"
			opacity="1" />
		<path fill="rgba(113,124,196,0.474)"
			d="M124.943 181.092c3.967-6.827 7.465-13.355 11.398-20.695 5.543 10.887 14.481 18.482 28.551 19.79-12.045 6.623-19.26 15.638-20.611 29.756-6.677-11.598-15.262-19.44-29.164-19.42l-.1-1.838a1103 1103 0 0 1 9.926-7.593"
			opacity="1" />
	</g>
	</g>
</svg>